<svg width="130" height="58" viewBox="0 0 130 58">
    <g fill="none" fill-rule="evenodd">
        <g>
            <g>
                <g fill="currentColor">
                    <path d="M10.204.014c2.318.046 4.18.827 4.161 1.746-.003.17-.07.331-.193.483l.01 3.32 4.88 9.211c.777 1.248 1.192 2.686 1.197 4.154l.056 22.8c.018 5.557-20.24 5.607-20.258.05L0 18.977c-.005-1.468.4-2.908 1.171-4.16l4.82-9.234-.01-3.426.223-.001c-.153-.178-.235-.368-.23-.563.018-.919 1.913-1.626 4.23-1.58z" transform="translate(-607 -7515) translate(610 7521)"/>
                </g>
            </g>
        </g>
    </g>
    <g fill="none" fill-rule="evenodd">
        <g>
            <g>
                <g fill="currentColor">
                    <path d="M10.204.014c2.318.046 4.18.827 4.161 1.746-.003.17-.07.331-.193.483l.01 3.32 4.88 9.211c.777 1.248 1.192 2.686 1.197 4.154l.056 22.8c.018 5.557-20.24 5.607-20.258.05L0 18.977c-.005-1.468.4-2.908 1.171-4.16l4.82-9.234-.01-3.426.223-.001c-.153-.178-.235-.368-.23-.563.018-.919 1.913-1.626 4.23-1.58z" transform="translate(-580 -7515) translate(610 7521)"/>
                </g>
            </g>
        </g>
    </g>
    <g fill="none" fill-rule="evenodd">
        <g>
            <g>
                <g fill="currentColor">
                    <path d="M10.204.014c2.318.046 4.18.827 4.161 1.746-.003.17-.07.331-.193.483l.01 3.32 4.88 9.211c.777 1.248 1.192 2.686 1.197 4.154l.056 22.8c.018 5.557-20.24 5.607-20.258.05L0 18.977c-.005-1.468.4-2.908 1.171-4.16l4.82-9.234-.01-3.426.223-.001c-.153-.178-.235-.368-.23-.563.018-.919 1.913-1.626 4.23-1.58z" transform="translate(-555 -7515) translate(610 7521)"/>
                </g>
            </g>
        </g>
    </g>
    <g fill="none" fill-rule="evenodd">
        <g>
            <g>
                <g fill="currentColor">
                    <path d="M10.204.014c2.318.046 4.18.827 4.161 1.746-.003.17-.07.331-.193.483l.01 3.32 4.88 9.211c.777 1.248 1.192 2.686 1.197 4.154l.056 22.8c.018 5.557-20.24 5.607-20.258.05L0 18.977c-.005-1.468.4-2.908 1.171-4.16l4.82-9.234-.01-3.426.223-.001c-.153-.178-.235-.368-.23-.563.018-.919 1.913-1.626 4.23-1.58z" transform="translate(-530 -7515) translate(610 7521)"/>
                </g>
            </g>
        </g>
    </g>
    <g fill="none" fill-rule="evenodd">
        <g>
            <g>
                <g fill="currentColor">
                    <path d="M10.204.014c2.318.046 4.18.827 4.161 1.746-.003.17-.07.331-.193.483l.01 3.32 4.88 9.211c.777 1.248 1.192 2.686 1.197 4.154l.056 22.8c.018 5.557-20.24 5.607-20.258.05L0 18.977c-.005-1.468.4-2.908 1.171-4.16l4.82-9.234-.01-3.426.223-.001c-.153-.178-.235-.368-.23-.563.018-.919 1.913-1.626 4.23-1.58z" transform="translate(-505 -7515) translate(610 7521)"/>
                </g>
            </g>
        </g>
    </g>
</svg>
